<?xml version="1.0" standalone="no"?>
<!DOCTYPE svg PUBLIC "-//W3C//DTD SVG 20010904//EN"
 "http://www.w3.org/TR/2001/REC-SVG-20010904/DTD/svg10.dtd">
<svg version="1.0" xmlns="http://www.w3.org/2000/svg"
 width="813.000000pt" height="207.000000pt" viewBox="0 0 813.000000 207.000000"
 preserveAspectRatio="xMidYMid meet">

<g transform="translate(0.000000,207.000000) scale(0.100000,-0.100000)"
fill="#000000" stroke="none">
<path d="M0 1035 l0 -1035 4065 0 4065 0 0 1035 0 1035 -4065 0 -4065 0 0
-1035z m2039 656 c79 -42 160 -70 246 -85 l70 -12 -3 -45 c-5 -71 -44 -414
-48 -418 -2 -2 -31 2 -64 9 -60 13 -60 13 -55 44 5 29 35 283 35 297 0 4 -29
12 -65 19 -78 15 -174 59 -233 107 l-43 35 -41 -37 c-51 -46 -143 -90 -226
-106 l-63 -13 -55 56 -56 55 76 17 c138 31 263 94 334 168 l32 34 49 -46 c27
-26 77 -61 110 -79z m956 -185 c83 -38 134 -107 155 -210 30 -146 -33 -296
-147 -352 -23 -11 -67 -20 -114 -22 -97 -5 -162 20 -220 86 -52 60 -72 129
-67 236 2 68 8 93 33 141 51 99 127 144 245 144 48 1 78 -5 115 -23z m2015
-21 l0 -35 -69 0 c-37 0 -83 -5 -102 -11 -78 -26 -129 -111 -129 -214 0 -136
80 -225 201 -225 l39 0 0 95 0 95 -40 0 c-39 0 -40 1 -40 35 l0 35 85 0 85 0
0 -166 0 -166 -117 4 c-108 3 -123 6 -171 32 -92 51 -133 129 -134 257 -1 199
99 298 305 299 l87 0 0 -35z m1670 -260 l0 -295 -127 0 c-144 0 -189 13 -235
68 -111 132 -17 342 153 342 78 0 99 -13 99 -59 l0 -39 -37 14 c-50 17 -68 17
-107 -1 -43 -20 -66 -63 -66 -120 0 -97 48 -135 170 -135 l70 0 0 260 0 260
40 0 40 0 0 -295z m-5116 70 c3 -16 12 -79 20 -138 19 -132 45 -185 129 -263
74 -69 148 -108 187 -99 46 10 141 77 190 133 l45 53 50 -17 c28 -8 56 -17 63
-20 33 -10 -73 -138 -173 -210 -35 -24 -92 -57 -126 -73 -62 -28 -65 -28 -104
-13 -137 54 -281 177 -335 285 -31 63 -38 106 -85 491 l-6 49 70 -74 c45 -47
72 -85 75 -104z m390 76 c38 -39 40 -100 5 -137 l-23 -25 32 -97 c18 -54 32
-103 32 -110 0 -13 -225 -18 -233 -4 -3 4 10 54 29 112 19 59 29 106 23 108
-16 6 -39 59 -39 91 0 20 10 40 31 60 43 43 103 44 143 2z m1625 -65 c94 -65
119 -208 54 -298 -55 -76 -154 -108 -242 -77 -27 10 -31 15 -31 49 l0 38 38
-14 c50 -18 77 -17 119 3 38 18 73 77 73 123 0 48 -35 105 -75 124 -53 26
-102 16 -142 -29 l-33 -35 0 -225 0 -225 -45 0 -45 0 0 208 c0 114 5 224 11
245 12 46 59 101 108 128 55 30 155 23 210 -15z m456 18 c43 -20 69 -73 62
-126 -10 -74 -74 -118 -172 -118 l-55 0 0 34 c0 33 0 33 57 39 38 4 62 12 70
23 36 49 -7 102 -73 89 -133 -25 -131 -246 3 -271 22 -4 49 -1 76 10 39 15 42
15 64 -6 13 -12 23 -25 23 -29 0 -4 -20 -17 -45 -29 -37 -18 -59 -21 -114 -18
-77 4 -122 28 -162 86 -28 41 -38 140 -19 197 15 46 65 104 105 121 42 18 140
17 180 -2z m413 -14 c63 -29 72 -58 72 -235 l0 -145 -40 0 -40 0 0 130 c0 73
-5 140 -11 153 -15 33 -49 47 -114 47 l-55 0 0 -165 0 -165 -40 0 -40 0 0 200
0 200 113 0 c89 0 121 -4 155 -20z m941 2 c68 -34 76 -55 79 -228 l4 -154
-127 0 c-143 0 -185 12 -210 61 -50 96 19 189 140 189 65 0 85 -13 85 -56 0
-32 -2 -35 -22 -27 -43 15 -109 9 -124 -12 -38 -51 6 -85 109 -85 l67 0 -1 83
c0 98 -15 147 -49 164 -14 7 -61 13 -107 13 l-83 0 0 35 0 35 103 0 c77 0 110
-4 136 -18z m243 -122 c4 -172 10 -182 113 -188 l65 -4 0 166 0 166 40 0 40 0
0 -200 0 -200 -112 0 c-91 0 -119 4 -152 20 -66 32 -70 45 -74 223 l-4 157 40
0 40 0 4 -140z m608 105 l0 -35 -65 0 c-57 0 -69 -3 -90 -25 -24 -23 -25 -29
-25 -165 l0 -140 -40 0 -40 0 0 148 c0 120 3 153 18 182 25 51 71 70 165 70
l77 0 0 -35z m-642 -671 c4 -27 -26 -40 -46 -20 -13 13 -13 18 -2 31 18 21 44
15 48 -11z m-1768 -46 c0 -40 3 -49 12 -40 17 17 79 15 105 -3 30 -21 44 -75
32 -121 -13 -44 -62 -78 -99 -68 -14 4 -42 7 -62 5 l-38 -1 0 140 0 140 25 0
c23 0 25 -3 25 -52z m-344 26 c36 -17 43 -34 21 -52 -8 -7 -18 -6 -31 4 -56
40 -131 -4 -131 -78 0 -70 76 -112 132 -73 20 14 23 14 34 -6 13 -25 5 -33
-51 -49 -86 -24 -160 35 -160 129 0 108 91 170 186 125z m1181 -8 c23 -20 25
-26 14 -40 -12 -14 -15 -14 -38 4 -31 24 -66 26 -84 4 -19 -23 -1 -45 50 -60
56 -16 81 -40 81 -76 0 -44 -16 -66 -57 -77 -44 -13 -102 0 -126 27 -16 18
-16 20 1 35 18 16 20 16 37 -3 35 -39 128 -15 95 25 -7 8 -29 19 -50 25 -57
15 -83 41 -83 80 0 72 100 107 160 56z m1053 -21 c0 -18 5 -25 20 -25 13 0 20
-7 20 -20 0 -13 -7 -20 -20 -20 -18 0 -20 -7 -20 -80 0 -79 0 -80 -25 -80 -25
0 -25 1 -25 80 0 73 -2 80 -20 80 -13 0 -20 7 -20 20 0 13 7 20 20 20 15 0 20
7 20 25 0 20 5 25 25 25 20 0 25 -5 25 -25z m-2103 -90 c14 -33 28 -64 33 -68
4 -5 18 22 31 60 21 60 27 68 52 71 l27 3 -19 -48 c-11 -26 -37 -92 -58 -145
-32 -83 -41 -98 -60 -98 -27 0 -27 1 -9 45 14 33 13 38 -30 136 -24 56 -44
104 -44 106 0 2 12 3 26 1 21 -2 30 -14 51 -63z m564 35 c10 -14 21 -37 25
-52 l6 -28 -81 0 c-79 0 -81 -1 -71 -20 15 -29 54 -42 86 -30 19 7 31 7 40 -1
22 -18 -20 -42 -74 -42 -38 0 -50 5 -74 31 -38 43 -39 98 -2 142 24 28 31 31
77 28 40 -2 54 -8 68 -28z m109 18 c0 -9 3 -9 12 0 7 7 25 12 41 12 38 0 33
-31 -7 -41 -40 -11 -46 -24 -46 -96 0 -60 -1 -63 -25 -63 l-25 0 0 100 0 100
25 0 c14 0 25 -5 25 -12z m605 -13 c16 -15 25 -36 25 -55 l0 -30 -75 0 c-41 0
-75 -4 -75 -8 0 -5 9 -17 20 -27 19 -17 46 -21 94 -13 34 5 29 -22 -7 -37 -76
-31 -147 14 -147 93 0 64 36 102 97 102 33 0 50 -6 68 -25z m214 8 c14 -13 18
-22 12 -32 -8 -12 -14 -12 -42 2 -73 35 -124 -57 -58 -105 25 -19 28 -19 57
-4 25 13 32 13 41 2 24 -28 -54 -62 -105 -46 -67 23 -88 119 -37 172 32 34 98
39 132 11z m101 -57 c0 -85 13 -107 55 -88 23 11 25 17 25 87 0 73 1 75 25 75
l25 0 0 -100 0 -100 -37 -1 c-21 0 -53 0 -72 -1 -54 -1 -71 27 -71 123 0 78 0
79 25 79 24 0 25 -2 25 -74z m230 62 c0 -9 3 -9 12 0 7 7 24 12 39 12 38 0 28
-33 -14 -46 -32 -9 -32 -10 -35 -81 -3 -70 -4 -73 -27 -73 -25 0 -25 0 -25
100 l0 100 25 0 c14 0 25 -5 25 -12z m160 -88 l0 -100 -25 0 -25 0 0 100 0
100 25 0 25 0 0 -100z m247 35 c14 -33 28 -64 33 -68 4 -5 18 22 31 60 21 60
27 68 52 71 l27 3 -19 -48 c-11 -26 -37 -92 -58 -145 -32 -83 -41 -98 -60 -98
-27 0 -27 1 -9 45 14 33 13 38 -30 136 -24 56 -44 104 -44 106 0 2 12 3 26 1
21 -2 30 -14 51 -63z"/>
<path d="M2825 1449 c-39 -11 -80 -50 -107 -102 -33 -61 -32 -183 1 -250 43
-89 139 -127 223 -89 76 33 118 108 118 211 0 109 -37 182 -110 219 -47 23
-76 26 -125 11z"/>
<path d="M3842 498 c-6 -6 -12 -29 -12 -50 0 -28 6 -41 24 -53 50 -33 102 21
80 84 -7 20 -17 27 -44 29 -19 2 -41 -3 -48 -10z"/>
<path d="M4073 503 c-7 -2 -13 -11 -13 -19 0 -10 14 -14 50 -14 51 0 60 6 38
28 -12 12 -52 15 -75 5z"/>
<path d="M4780 490 c-10 -19 -8 -20 45 -20 53 0 55 1 45 20 -8 14 -21 20 -45
20 -24 0 -37 -6 -45 -20z"/>
</g>
</svg>
